<svg width="10px" height="16px" viewBox="0 0 10 16" version="1.1" xmlns="http://www.w3.org/2000/svg" xmlns:xlink="http://www.w3.org/1999/xlink">
    <!-- Generator: Sketch 45.1 (43504) - http://www.bohemiancoding.com/sketch -->
    <desc>Created with Sketch.</desc>
    <defs></defs>
    <g id="Company-Admin" stroke="none" stroke-width="1" fill="none" fill-rule="evenodd">
        <g id="(Company-Admin)-External-Class_Calendar" transform="translate(-756.000000, -215.000000)" fill-rule="nonzero" fill="#333745">
            <g id="Title-navigator" transform="translate(756.000000, 206.000000)">
                <path d="M1.691098,25 C1.25934697,25 0.811605165,24.8221781 0.475798808,24.4827 C-0.163832348,23.8037438 -0.163832348,22.7206471 0.507780366,22.0578565 L5.51289416,17.1111756 L0.475798808,11.9058448 C-0.163832348,11.2268886 -0.163832348,10.1437918 0.507780366,9.48100124 C1.17939308,8.83437629 2.25077527,8.83437629 2.9063972,9.51333249 L9.12681019,15.9472507 C9.43063499,16.2705632 9.60653356,16.707035 9.60653356,17.1596725 C9.60653356,17.61231 9.41464421,18.0487818 9.09482863,18.3720943 L2.87441564,24.4988657 C2.55460006,24.8221781 2.12284903,25 1.691098,25 Z" id="Shape" transform="translate(4.803267, 17.000000) scale(-1, 1) translate(-4.803267, -17.000000) "></path>
            </g>
        </g>
    </g>
</svg>
